<?xml version="1.0" encoding="UTF-8" standalone="no"?>
<!-- Created with Inkscape (http://www.inkscape.org/) -->

<svg
   version="1.1"
   id="svg376"
   width="207"
   height="209"
   viewBox="0 0 207 209"
   sodipodi:docname="Biju Janata Dal logo.svg"
   inkscape:version="1.2.2 (732a01da63, 2022-12-09)"
   xmlns:inkscape="http://www.inkscape.org/namespaces/inkscape"
   xmlns:sodipodi="http://sodipodi.sourceforge.net/DTD/sodipodi-0.dtd"
   xmlns="http://www.w3.org/2000/svg"
   xmlns:svg="http://www.w3.org/2000/svg">
  <defs
     id="defs380" />
  <sodipodi:namedview
     id="namedview378"
     pagecolor="#ffffff"
     bordercolor="#000000"
     borderopacity="0.25"
     inkscape:showpageshadow="2"
     inkscape:pageopacity="0.0"
     inkscape:pagecheckerboard="0"
     inkscape:deskcolor="#d1d1d1"
     showgrid="false"
     inkscape:zoom="2.4066986"
     inkscape:cx="103.66899"
     inkscape:cy="38.018887"
     inkscape:window-width="1366"
     inkscape:window-height="706"
     inkscape:window-x="-8"
     inkscape:window-y="-8"
     inkscape:window-maximized="1"
     inkscape:current-layer="g382" />
  <g
     inkscape:groupmode="layer"
     inkscape:label="Image"
     id="g382">
    <g
       id="g386"
       transform="matrix(1.0534371,0,0,1.044531,-0.67378165,-0.40196376)">
      <path
         style="fill:#cfcfcf"
         d="m 103,144.5 c 0.68469,-0.825 1.46989,-1.5 1.74489,-1.5 0.275,0 -0.0602,0.675 -0.74489,1.5 -0.68469,0.825 -1.46989,1.5 -1.74489,1.5 -0.275,0 0.0602,-0.675 0.74489,-1.5 z"
         id="path396" />
      <path
         style="fill:#929291"
         d="m 100.75,152.33772 c 0.6875,-0.27741 1.8125,-0.27741 2.5,0 0.6875,0.27741 0.125,0.50439 -1.25,0.50439 -1.375,0 -1.9375,-0.22698 -1.25,-0.50439 z m 0,-3 c 0.6875,-0.27741 1.8125,-0.27741 2.5,0 0.6875,0.27741 0.125,0.50439 -1.25,0.50439 -1.375,0 -1.9375,-0.22698 -1.25,-0.50439 z"
         id="path394" />
      <path
         style="fill:#5e5e5d"
         d="m 51.194949,107.5 c -0.02038,-1.65 0.187065,-2.44606 0.460988,-1.76903 0.273923,0.67703 0.290597,2.02703 0.03705,3 -0.253544,0.97297 -0.477663,0.41903 -0.498042,-1.23097 z"
         id="path392" />
      <path
         style="fill:#01a319"
         d="M 87,195.35327 C 70.934961,192.20404 54.144362,183.66684 42.394477,172.67355 28.789859,159.94496 20.830689,147.20156 15.301847,129.29562 12.768045,121.08955 12.587652,119.29351 12.610519,102.5 12.633194,85.846366 12.836176,83.84265 15.32424,75.71168 20.649222,58.309688 28.883849,44.995159 41.788688,32.921438 54.22403,21.286979 68.885735,13.648268 84.962825,10.427824 97.409517,7.9345949 116.61364,8.8599183 127.5,12.477417 c 30.02482,9.977145 51.71192,32.390253 61.18597,63.234263 2.48083,8.076659 2.70406,10.205436 2.75673,26.28832 0.0505,15.41707 -0.21778,18.4522 -2.25378,25.5 -9.1053,31.51873 -30.19392,54.29925 -59.55777,64.33597 -9.54427,3.26228 -11.00007,3.47865 -25.13115,3.73513 -8.25,0.14973 -16.125,0.0517 -17.5,-0.21783 z m 29.85224,-8.45084 c 25.16751,-3.94845 49.82449,-24.18749 60.56976,-49.71711 9.92888,-23.58996 8.98222,-51.443479 -2.5329,-74.525751 C 164.39798,41.629913 146.49464,26.558743 123.5,19.399825 118.74122,17.918274 114.29352,17.528551 102,17.515922 88.432424,17.501985 85.63952,17.78828 79.598075,19.812296 48.951802,30.07947 27.643343,53.932362 21.436786,84.918597 c -2.268728,11.326626 -1.547459,31.410923 1.507025,41.964273 7.816853,27.00749 28.136701,48.68655 53.679158,57.26979 12.845049,4.31643 24.963571,5.14476 40.229271,2.74977 z"
         id="path390" />
      <path
         style="fill:#1c1c1a"
         d="m 87.836372,150.08116 c -3.114996,-0.9962 -7.21291,-2.76879 -9.106477,-3.93908 C 74.134911,143.30223 66.424836,134.95874 64.323459,130.55211 63.378393,128.57029 61.888999,127 60.954335,127 c -0.921383,0 -3.266632,-1.07995 -5.211666,-2.39988 -1.945034,-1.31994 -4.407753,-2.67643 -5.472709,-3.01444 -1.064957,-0.338 -4.588713,-3.08306 -7.830569,-6.10012 C 39.197535,112.4685 36.21329,110 35.807737,110 34.602276,110 33,106.32261 33,103.55595 c 0,-1.41654 0.935441,-3.35862 2.078757,-4.315737 1.143317,-0.957117 2.713382,-2.945822 3.489033,-4.419344 0.775651,-1.473523 2.24692,-2.944673 3.269486,-3.269222 1.022565,-0.32455 2.357991,-1.684796 2.967613,-3.022769 0.609621,-1.337973 2.459484,-3.13135 4.110806,-3.985282 1.651322,-0.853932 4.125376,-2.675577 5.497899,-4.0481 2.300958,-2.300957 4.552798,-2.967734 8.688841,-2.572792 0.881339,0.08416 2.798421,-1.415006 4.260183,-3.331474 7.23394,-9.484184 17.454627,-15.924717 27.204613,-17.142897 13.926009,-1.739939 31.579539,5.698024 50.130869,21.121642 6.34124,5.27212 8.60459,6.543311 13.22617,7.42837 7.78148,1.490198 8.5297,2.077902 8.88953,6.982467 0.76411,10.414858 -12.39285,32.864238 -25.53504,43.569798 -16.44872,13.39903 -37.32597,18.68474 -53.442388,13.53055 z m 28.111348,-2.70771 c 15.90247,-4.50792 31.34652,-16.90115 40.79233,-32.73419 C 161.89037,106.0063 165,98.08531 165,93.599131 c 0,-3.254772 -0.12753,-3.352907 -5.9676,-4.592256 -6.25563,-1.327535 -6.63243,-1.551497 -20.3147,-12.07462 C 106.81586,52.396333 80.929686,54.608029 64.439879,83.278498 60.875352,89.476064 59,91.456835 59,89.02417 c 0,-0.536707 0.898318,-2.449207 1.996262,-4.25 C 63.561604,80.566623 63.513255,80 60.588894,80 58.262137,80 53,84.953726 53,87.144113 c 0,0.544864 -0.824499,0.728977 -1.832219,0.409139 -1.150138,-0.36504 -2.546154,0.206474 -3.75,1.535208 -1.558941,1.720666 -1.982455,3.980258 -2.263425,12.07612 -0.363012,10.45985 0.701744,15.15286 3.816056,16.81958 1.527124,0.8173 1.620486,0.43987 0.937064,-3.78821 -0.879449,-5.44084 0.007,-22.025031 1.217188,-22.772996 0.451109,-0.278802 0.747973,5.024479 0.659696,11.785066 -0.177047,13.55903 1.061579,17.8534 5.767966,19.99777 3.212874,1.46389 3.921851,0.59319 2.60137,-3.19474 C 58.567396,115.46058 57.50553,102 58.732858,102 c 0.554797,0 1.31094,3.06704 1.680318,6.81565 3.031938,30.7694 26.218716,46.86805 55.534544,38.5578 z m -12.91841,-0.74143 c -0.0161,-0.4774 1.32069,-2.40556 2.97069,-4.2848 1.65,-1.87925 3,-2.95825 3,-2.39779 0,1.25505 -5.92984,7.89192 -5.97069,6.68259 z m -3.44592,-4.09039 c 5.10765,-4.51007 6.77544,-4.5388 2.41661,-0.0416 -1.86578,1.925 -4.054033,3.5 -4.862777,3.5 -0.822379,0 0.255712,-1.5242 2.446167,-3.45837 z m 9.59567,0.70837 c 1.40429,-1.5125 3.04979,-3.65 3.65668,-4.75 0.81342,-1.47433 1.11144,-1.59261 1.13385,-0.45 0.0167,0.8525 -0.50209,2.0825 -1.15292,2.73333 -0.65084,0.65084 -0.89888,1.4678 -0.5512,1.81547 0.34767,0.34767 2.00517,-1.53293 3.68333,-4.17912 3.16094,-4.98429 4.20567,-4.55286 1.52552,0.62998 -2.77831,5.37267 0.4351,3.08055 3.63828,-2.59518 3.62534,-6.42376 5.21433,-6.62933 1.91431,-0.24767 -3.21793,6.22294 -5.02877,8.03654 -6.66687,6.67703 -1.01201,-0.83989 -1.48895,-0.71148 -1.96499,0.52906 -0.45345,1.18167 -0.97708,1.34894 -1.87915,0.60029 -0.88949,-0.7382 -1.61292,-0.60121 -2.50567,0.47448 -0.69031,0.83178 -1.73421,1.51233 -2.31977,1.51233 -0.58555,0 0.0843,-1.2375 1.4886,-2.75 z m -17.166681,1 c 0.01649,-0.99921 7.046938,-5.52402 7.648421,-4.92253 0.49891,0.49891 -5.890163,5.67253 -7.005191,5.67253 -0.360585,0 -0.650039,-0.3375 -0.64323,-0.75 z m -3.018773,-3.19996 c 1.921483,-1.59289 3.721483,-2.6675 4,-2.38803 0.694674,0.69706 -4.81752,5.34447 -6.29937,5.31109 -0.65683,-0.0148 0.377887,-1.33017 2.29937,-2.92306 z M 82,142.21561 c 0,-1.01832 5.987103,-4.56184 6.626809,-3.92213 C 89.116716,138.78338 83.71333,143 82.59563,143 82.268033,143 82,142.64702 82,142.21561 Z M 79,140 c 0,-0.55 -0.675,-1 -1.5,-1 -0.825,0 -1.5,-0.45 -1.5,-1 0,-0.55 1.151558,-1 2.559017,-1 1.606132,0 2.305924,0.40951 1.879323,1.09977 -0.477709,0.77295 -0.04949,0.76249 1.440983,-0.0352 C 83.20314,137.3561 84,137.30539 84,137.92963 c 0,0.55 -0.870416,1.46584 -1.934259,2.03519 C 79.646886,141.25935 79,141.26677 79,140 Z m 45.01025,0 c 0,-0.825 1.10865,-3.3 2.46366,-5.5 1.35502,-2.2 2.46367,-3.325 2.46367,-2.5 0,0.825 -1.10865,3.3 -2.46367,5.5 -1.35501,2.2 -2.46366,3.325 -2.46366,2.5 z M 128,138.65977 c 0,-0.18713 1.34185,-2.77463 2.98188,-5.75 1.94104,-3.52145 3.00399,-4.71166 3.04519,-3.40977 0.0441,1.39208 0.82697,0.63217 2.57567,-2.5 2.6345,-4.71876 2.49772,-3.39638 -0.3875,3.74625 -1.65113,4.08755 -3.7332,6.09268 -2.59982,2.50375 0.30395,-0.9625 -0.47362,-0.0625 -1.72794,2 C 130.00085,138.3522 128,140.10718 128,138.65977 Z M 73.5,135 c 0.802431,-1.29836 3.5,-1.29836 3.5,0 0,0.55 -0.926558,1 -2.059017,1 -1.132459,0 -1.780902,-0.45 -1.440983,-1 z M 71,133 c 0,-0.55 0.675,-1 1.5,-1 0.825,0 1.5,0.45 1.5,1 0,0.55 -0.675,1 -1.5,1 -0.825,0 -1.5,-0.45 -1.5,-1 z m 20.134521,-1.96707 c -5.038656,-1.239 -19.546485,-12.60483 -20.690589,-16.20958 -0.316222,-0.99633 -1.281542,-2.5181 -2.145155,-3.38172 -1.114574,-1.11457 -1.259946,-1.88046 -0.500984,-2.63942 0.758963,-0.75897 1.667778,-0.0874 3.131977,2.31428 1.134514,1.86093 2.064436,3.66694 2.066492,4.01336 0.0078,1.31611 11.593698,9.30846 15.459768,10.66469 7.887574,2.767 22.85223,1.03729 30.04397,-3.47267 2.2,-1.37962 8.53729,-7.19144 14.08286,-12.91514 C 140.41865,101.31924 143.26011,99 145.33286,99 146.79979,99 148,99.312811 148,99.695135 c 0,0.382325 -2.8125,3.422785 -6.25,6.756585 -3.4375,3.3338 -7.92501,7.95846 -9.97225,10.27703 -6.14478,6.95918 -15.57511,12.04523 -24.59188,13.26309 -4.22723,0.57096 -8.81087,1.22498 -10.18587,1.45338 -1.375,0.2284 -4.014465,0.0429 -5.865479,-0.41229 z M 139,131.25643 c 0,-0.65372 0.64751,-2.66634 1.43891,-4.4725 0.7914,-1.80616 1.7634,-4.63393 2.16,-6.28393 0.50647,-2.10707 0.84458,-2.47672 1.13598,-1.24191 0.22818,0.96695 -0.13285,3.44195 -0.8023,5.5 C 141.6,128.85484 139,133.15116 139,131.25643 Z m -37,-6.88225 c 0,-0.55 1.35,-2.29338 3,-3.87418 1.65,-1.5808 3,-2.42418 3,-1.87418 0,0.55 -1.35,2.29338 -3,3.87418 -1.65,1.5808 -3,2.42418 -3,1.87418 z M 144.29466,124 c 0.31646,-0.825 1.12586,-3.1875 1.79865,-5.25 0.6728,-2.0625 1.82704,-3.75 2.56498,-3.75 0.73794,0 1.34171,-0.92656 1.34171,-2.05902 0,-1.13246 0.37695,-1.82605 0.83767,-1.54131 0.46072,0.28474 2.36153,-2.5012 4.22402,-6.19098 4.02894,-7.981696 3.82666,-7.653678 4.37916,-7.101176 0.24246,0.242466 -0.50208,2.454966 -1.65453,4.916666 -1.15246,2.4617 -2.13834,4.95613 -2.19085,5.54317 -0.0525,0.58704 -0.77047,1.74513 -1.59547,2.57353 -0.825,0.82839 -2.4,3.23282 -3.5,5.34318 -2.04782,3.92875 -7.2431,10.2213 -6.20534,7.51594 z M 106,123.38037 c 0,-1.42586 7.97563,-8.73807 8.7195,-7.9942 0.34923,0.34922 -0.4573,1.60518 -1.79227,2.79101 -1.33498,1.18583 -3.43973,3.05952 -4.67723,4.16375 -1.2375,1.10424 -2.25,1.57198 -2.25,1.03944 z M 90,121.84715 C 90,121.38122 91.597347,121 93.54966,121 c 1.952313,0 4.82026,-0.65705 6.373216,-1.46012 3.663914,-1.89468 4.905434,-0.70563 1.311994,1.25654 C 98.239062,122.43226 90,123.20281 90,121.84715 Z m 21,0.58772 c 0,-1.13689 9.96075,-10.80746 10.53759,-10.23061 0.32734,0.32733 -1.62866,2.89029 -4.34666,5.69545 -4.60784,4.75561 -6.19093,5.9153 -6.19093,4.53516 z m 8.70575,-3.06246 c -0.84765,-0.84764 5.36262,-9.44819 6.37192,-8.82441 0.43127,0.26654 1.07132,0.0199 1.42233,-0.548 0.35101,-0.56794 1.06055,-0.77159 1.57677,-0.45255 0.52236,0.32283 0.24887,1.26977 -0.61672,2.13536 -0.85541,0.8554 -1.83637,1.2742 -2.17992,0.93065 -0.34355,-0.34354 -1.8196,1.1804 -3.28013,3.38654 -1.46053,2.20614 -2.94294,3.72373 -3.29425,3.37241 z M 42.545455,103.5 c 0,-5.225 -0.293134,-9.5 -0.651407,-9.5 -1.557859,0 -3.111313,6.38708 -2.670145,10.9784 0.374136,3.89371 2.006062,8.0216 3.171269,8.0216 0.08265,0 0.150283,-4.275 0.150283,-9.5 z m -5.817373,-1.25 c -0.398634,-1.66667 -0.454839,-1.66667 -1.180313,0 -0.41896,0.9625 -0.41896,2.5375 0,3.5 0.725474,1.66667 0.781679,1.66667 1.180313,0 0.230212,-0.9625 0.230212,-2.5375 0,-3.5 z"
         id="path388" />
    </g>
  </g>
</svg>
